<?xml version="1.0" encoding="UTF-8" standalone="no" ?>
<!DOCTYPE svg PUBLIC "-//W3C//DTD SVG 1.1//EN" "http://www.w3.org/Graphics/SVG/1.1/DTD/svg11.dtd">
<svg xmlns="http://www.w3.org/2000/svg" xmlns:xlink="http://www.w3.org/1999/xlink" version="1.1" width="1250" height="300" viewBox="0 0 1250 300" xml:space="preserve">
<desc>Created with Fabric.js 5.2.4</desc>
<defs>
</defs>
<rect x="0" y="0" width="100%" height="100%" fill="transparent"></rect>
<g transform="matrix(1 0 0 1 625 150)" id="cc164458-d1dd-4594-a5ae-923912e9e308"  >
<rect style="stroke: none; stroke-width: 1; stroke-dasharray: none; stroke-linecap: butt; stroke-dashoffset: 0; stroke-linejoin: miter; stroke-miterlimit: 4; fill: rgb(255,255,255); fill-rule: nonzero; opacity: 1; visibility: hidden;" vector-effect="non-scaling-stroke"  x="-625" y="-150" rx="0" ry="0" width="1250" height="300" />
</g>
<g transform="matrix(Infinity NaN NaN Infinity 0 0)" id="2ee4a39e-8cbd-43bd-ba74-d9c8e5dea3de"  >
</g>
<g transform="matrix(NaN NaN NaN NaN 0 0)"  >
<g style=""   >
</g>
</g>
<g transform="matrix(NaN NaN NaN NaN 0 0)"  >
<g style=""   >
</g>
</g>
<g transform="matrix(2.45 0 0 2.45 625 150)"  >
<g style=""   >
		<g transform="matrix(1 0 0 1 -228.39 15.65)" id="logo"  >
<path style="stroke: none; stroke-width: 1; stroke-dasharray: none; stroke-linecap: butt; stroke-dashoffset: 0; stroke-linejoin: round; stroke-miterlimit: 1.41421; fill: rgb(255,255,255); fill-rule: nonzero; opacity: 1;" vector-effect="non-scaling-stroke"  transform=" translate(-21.61, -63.15)" d="M 29.237 87.334 C 29.237 91.543 25.817999999999998 94.95700000000001 21.607 94.95700000000001 C 17.393 94.95700000000001 13.975 91.543 13.975 87.334 L 13.975 38.962 C 13.975 34.753 17.393 31.341 21.607 31.341 C 25.817999999999998 31.341 29.237 34.753 29.237 38.962 L 29.237 87.334 Z" stroke-linecap="round" />
</g>
		<g transform="matrix(1 0 0 1 -187.46 15.67)" id="logo"  >
<path style="stroke: none; stroke-width: 1; stroke-dasharray: none; stroke-linecap: butt; stroke-dashoffset: 0; stroke-linejoin: round; stroke-miterlimit: 1.41421; fill: rgb(255,255,255); fill-rule: nonzero; opacity: 1;" vector-effect="non-scaling-stroke"  transform=" translate(-62.54, -63.17)" d="M 86.76 31.344 L 38.330000000000005 31.344 C 34.11600000000001 31.344 30.699000000000005 34.757 30.699000000000005 38.965 C 30.699000000000005 43.178000000000004 34.11600000000001 46.587 38.330000000000005 46.587 L 54.915000000000006 46.587 L 54.915000000000006 87.379 C 54.915000000000006 91.584 58.32900000000001 95 62.544000000000004 95 C 66.757 95 70.177 91.584 70.177 87.379 L 70.177 46.587 L 86.76 46.587 C 90.973 46.587 94.39 43.178000000000004 94.39 38.965 C 94.39 34.757000000000005 90.973 31.344 86.76 31.344" stroke-linecap="round" />
</g>
		<g transform="matrix(1 0 0 1 -171.69 -3.71)" id="logo"  >
<path style="stroke: none; stroke-width: 1; stroke-dasharray: none; stroke-linecap: butt; stroke-dashoffset: 0; stroke-linejoin: round; stroke-miterlimit: 1.41421; fill: rgb(255,255,255); fill-rule: nonzero; opacity: 1;" vector-effect="non-scaling-stroke"  transform=" translate(-78.31, -43.79)" d="M 101.895 25.5 C 110.317 39.382 98.29599999999999 62.257 74.857 78.262 L 74.857 78.266 C 76.466 77.408 78.069 76.49900000000001 79.666 75.53200000000001 C 106.146 59.50500000000001 120.348 34.53500000000001 111.38499999999999 19.759000000000007 C 102.422 4.9800000000000075 73.68699999999998 5.992000000000008 47.204999999999984 22.019000000000005 C 45.603999999999985 22.988000000000007 44.051999999999985 23.991000000000007 42.54199999999999 25.021000000000004 C 67.59899999999999 11.673000000000004 93.47399999999999 11.620000000000005 101.89499999999998 25.500000000000004" stroke-linecap="round" />
</g>
		<g transform="matrix(1 0 0 1 -229.73 -31.39)" id="logo"  >
<path style="stroke: none; stroke-width: 1; stroke-dasharray: none; stroke-linecap: butt; stroke-dashoffset: 0; stroke-linejoin: round; stroke-miterlimit: 1.41421; fill: rgb(255,255,255); fill-rule: nonzero; opacity: 1;" vector-effect="non-scaling-stroke"  transform=" translate(-20.27, -16.11)" d="M 40.366 12.075 C 39.751 10.096 37.644 8.991999999999999 35.663 9.604999999999999 C 33.961 10.133999999999999 32.907999999999994 11.758999999999999 33.034 13.460999999999999 L 29.246 14.636 C 28.011 11.719999999999999 25.121 9.666999999999998 21.747999999999998 9.666999999999998 C 19.714 9.666999999999998 17.857999999999997 10.418999999999999 16.430999999999997 11.650999999999998 L 10.487999999999998 5.730999999999998 C 11.389999999999997 4.279999999999998 11.212999999999997 2.351999999999998 9.950999999999997 1.0959999999999983 C 8.480999999999996 -0.36800000000000166 6.100999999999997 -0.36500000000000177 4.634999999999997 1.1029999999999982 C 3.171999999999997 2.570999999999998 3.1729999999999974 4.948999999999998 4.6439999999999975 6.411999999999998 C 5.905999999999997 7.667999999999998 7.834999999999997 7.839999999999998 9.284999999999997 6.9369999999999985 L 15.267999999999997 12.896999999999998 C 14.232999999999997 14.258999999999999 13.613999999999997 15.95 13.613999999999997 17.793 C 13.613999999999997 18.915 13.837999999999997 19.98 14.251999999999997 20.954 L 6.414999999999997 25.809 C 5.209999999999997 24.6 3.2889999999999975 24.332 1.7759999999999971 25.27 C 0.014999999999997238 26.363 -0.5300000000000029 28.677 0.5659999999999972 30.439 C 1.6589999999999971 32.2 3.9759999999999973 32.742 5.737999999999997 31.649 C 7.253999999999997 30.71 7.864999999999997 28.871000000000002 7.314999999999997 27.258000000000003 L 15.081999999999997 22.442000000000004 C 16.551999999999996 24.540000000000003 18.987999999999996 25.916000000000004 21.747999999999998 25.916000000000004 C 26.24 25.916000000000004 29.880999999999997 22.279000000000003 29.880999999999997 17.793000000000006 C 29.880999999999997 17.272000000000006 29.825999999999997 16.763000000000005 29.732999999999997 16.268000000000008 L 33.538999999999994 15.089000000000008 C 34.403999999999996 16.56000000000001 36.19199999999999 17.303000000000008 37.89399999999999 16.774000000000008 C 39.87599999999999 16.15900000000001 40.983999999999995 14.056000000000008 40.36599999999999 12.075000000000008" stroke-linecap="round" />
</g>
		<g transform="matrix(1 0 0 1 -109.2 -5.88)"  >
<path style="stroke: none; stroke-width: 1; stroke-dasharray: none; stroke-linecap: butt; stroke-dashoffset: 0; stroke-linejoin: round; stroke-miterlimit: 1.41421; fill: rgb(255,255,255); fill-rule: nonzero; opacity: 1;" vector-effect="non-scaling-stroke"  transform=" translate(-140.8, -41.62)" d="M 132.328 52.081 L 135.665 52.081 L 135.665 48.106 C 135.665 45.594 136.602 43.494 141.177 43.494 L 142.414 43.494 L 142.414 40.757 L 141.177 40.757 C 138.29 40.757 136.86499999999998 41.207 135.778 43.157 L 135.665 43.119 L 135.665 38.958 C 135.665 35.620999999999995 137.39 33.933 140.76399999999998 33.933 C 144.176 33.933 145.939 35.621 145.939 38.958 L 145.939 52.080999999999996 L 149.27599999999998 52.080999999999996 L 149.27599999999998 38.958 C 149.27599999999998 33.933 146.72599999999997 31.159 140.802 31.159 C 134.878 31.159 132.328 33.933 132.328 38.958 L 132.328 52.080999999999996 Z" stroke-linecap="round" />
</g>
		<g transform="matrix(1 0 0 1 -81.06 -5.69)"  >
<path style="stroke: none; stroke-width: 1; stroke-dasharray: none; stroke-linecap: butt; stroke-dashoffset: 0; stroke-linejoin: round; stroke-miterlimit: 1.41421; fill: rgb(255,255,255); fill-rule: nonzero; opacity: 1;" vector-effect="non-scaling-stroke"  transform=" translate(-168.94, -41.81)" d="M 159.587 52.456 C 160.411 52.456 161.31099999999998 52.343 162.249 51.893 L 161.761 49.494 C 161.349 49.644 160.861 49.719 160.374 49.719 C 159.287 49.719 158.799 49.269 158.799 48.144 L 158.799 44.844 C 158.799 42.182 160.299 41.132 162.174 41.132 L 162.47400000000002 39.333 L 158.199 37.308 C 158.23700000000002 35.096 160.149 33.933 162.811 33.933 C 165.286 33.933 167.61 34.946 167.61 38.545 L 167.61 45.632000000000005 C 167.61 50.543000000000006 170.235 52.456 174.05900000000003 52.456 C 176.75900000000001 52.456 179.12100000000004 51.106 179.98400000000004 48.819 L 180.17100000000005 48.819 L 180.35900000000004 52.081 L 183.09600000000003 52.081 L 183.09600000000003 31.534000000000002 L 179.75900000000004 31.534000000000002 L 179.75900000000004 43.532000000000004 C 179.75900000000004 47.206 177.73400000000004 49.644000000000005 174.73400000000004 49.644000000000005 C 172.41000000000003 49.644000000000005 170.94700000000003 48.36900000000001 170.94700000000003 45.36900000000001 L 170.94700000000003 38.208000000000006 C 170.94700000000003 33.03300000000001 166.97300000000004 31.159000000000006 162.84900000000002 31.159000000000006 C 157.937 31.159000000000006 154.787 33.821000000000005 154.787 37.120000000000005 L 154.787 38.358000000000004 L 159.09900000000002 39.932 L 159.062 40.045 C 156.924 40.607 155.46200000000002 41.77 155.46200000000002 44.882000000000005 L 155.46200000000002 48.519000000000005 C 155.46200000000002 51.593 157.449 52.456 159.58700000000002 52.456 Z" stroke-linecap="round" />
</g>
		<g transform="matrix(1 0 0 1 -57.27 -5.77)"  >
<path style="stroke: none; stroke-width: 1; stroke-dasharray: none; stroke-linecap: butt; stroke-dashoffset: 0; stroke-linejoin: round; stroke-miterlimit: 1.41421; fill: rgb(255,255,255); fill-rule: nonzero; opacity: 1;" vector-effect="non-scaling-stroke"  transform=" translate(-192.73, -41.73)" d="M 192.132 39.183 L 197.606 39.183 L 197.606 36.558 L 192.244 36.558 C 191.307 36.558 191.007 36.07 191.007 35.433 C 191.007 34.983 191.157 34.496 191.27 34.233 L 188.45700000000002 33.782999999999994 C 188.08200000000002 34.346 187.85700000000003 35.20799999999999 187.85700000000003 35.95799999999999 C 187.85700000000003 37.60799999999999 189.02000000000004 39.18299999999999 192.13200000000003 39.18299999999999 Z M 192.132 49.681 L 197.606 49.681 L 197.606 47.056 L 192.244 47.056 C 191.307 47.056 191.007 46.568999999999996 191.007 45.931999999999995 C 191.007 45.48199999999999 191.157 44.99399999999999 191.27 44.73199999999999 L 188.45700000000002 44.28199999999999 C 188.08200000000002 44.84399999999999 187.85700000000003 45.70699999999999 187.85700000000003 46.45599999999999 C 187.85700000000003 48.10599999999999 189.02000000000004 49.68099999999999 192.13200000000003 49.68099999999999 Z" stroke-linecap="round" />
</g>
		<g transform="matrix(1 0 0 1 -43.94 -5.5)"  >
<path style="stroke: none; stroke-width: 1; stroke-dasharray: none; stroke-linecap: butt; stroke-dashoffset: 0; stroke-linejoin: round; stroke-miterlimit: 1.41421; fill: rgb(255,255,255); fill-rule: nonzero; opacity: 1;" vector-effect="non-scaling-stroke"  transform=" translate(-206.06, -42)" d="M 206.755 52.456 C 207.57999999999998 52.456 208.48 52.343 209.454 51.893 L 209.00400000000002 49.456 C 208.555 49.606 208.03000000000003 49.719 207.58 49.719 C 206.455 49.719 206.00500000000002 49.269 206.00500000000002 48.106 L 206.00500000000002 31.534000000000002 L 202.66800000000003 31.534000000000002 L 202.66800000000003 48.519000000000005 C 202.66800000000003 51.593 204.69300000000004 52.456 206.75500000000002 52.456 Z" stroke-linecap="round" />
</g>
		<g transform="matrix(1 0 0 1 -28.4 -5.88)"  >
<path style="stroke: none; stroke-width: 1; stroke-dasharray: none; stroke-linecap: butt; stroke-dashoffset: 0; stroke-linejoin: round; stroke-miterlimit: 1.41421; fill: rgb(255,255,255); fill-rule: nonzero; opacity: 1;" vector-effect="non-scaling-stroke"  transform=" translate(-221.6, -41.62)" d="M 213.279 52.081 L 216.61599999999999 52.081 L 216.61599999999999 40.19500000000001 C 216.61599999999999 36.708000000000006 218.60299999999998 33.971000000000004 222.128 33.971000000000004 C 225.052 33.971000000000004 226.589 35.54600000000001 226.589 38.545 L 226.589 52.081 L 229.926 52.081 L 229.926 38.358000000000004 C 229.926 33.371 227.22699999999998 31.159000000000006 222.765 31.159000000000006 C 219.57799999999997 31.159000000000006 217.21599999999998 32.54600000000001 216.35299999999998 34.79600000000001 L 216.20299999999997 34.79600000000001 L 215.60299999999998 31.534000000000006 L 213.27899999999997 31.534000000000006 L 213.27899999999997 52.081 Z" stroke-linecap="round" />
</g>
		<g transform="matrix(1 0 0 1 -5.53 -5.88)"  >
<path style="stroke: none; stroke-width: 1; stroke-dasharray: none; stroke-linecap: butt; stroke-dashoffset: 0; stroke-linejoin: round; stroke-miterlimit: 1.41421; fill: rgb(255,255,255); fill-rule: nonzero; opacity: 1;" vector-effect="non-scaling-stroke"  transform=" translate(-244.47, -41.62)" d="M 236.001 52.081 L 239.338 52.081 L 239.338 48.106 C 239.338 45.594 240.275 43.494 244.849 43.494 L 246.087 43.494 L 246.087 40.757 L 244.849 40.757 C 241.962 40.757 240.53699999999998 41.207 239.45 43.157 L 239.338 43.119 L 239.338 38.958 C 239.338 35.620999999999995 241.06199999999998 33.933 244.43699999999998 33.933 C 247.849 33.933 249.611 35.621 249.611 38.958 L 249.611 52.080999999999996 L 252.94799999999998 52.080999999999996 L 252.94799999999998 38.958 C 252.94799999999998 33.933 250.39799999999997 31.159 244.474 31.159 C 238.54999999999998 31.159 236.00099999999998 33.933 236.00099999999998 38.958 L 236.00099999999998 52.080999999999996 Z" stroke-linecap="round" />
</g>
		<g transform="matrix(1 0 0 1 12.72 -10.72)"  >
<path style="stroke: none; stroke-width: 1; stroke-dasharray: none; stroke-linecap: butt; stroke-dashoffset: 0; stroke-linejoin: round; stroke-miterlimit: 1.41421; fill: rgb(255,255,255); fill-rule: nonzero; opacity: 1;" vector-effect="non-scaling-stroke"  transform=" translate(-262.72, -36.78)" d="M 264.196 52.456 C 265.021 52.456 265.92100000000005 52.343 266.896 51.893 L 266.446 49.456 C 265.99600000000004 49.606 265.471 49.719 265.021 49.719 C 263.897 49.719 263.447 49.269 263.447 48.106 L 263.447 28.572000000000003 C 263.447 26.134000000000004 262.547 24.635 261.459 23.885 L 261.497 23.735000000000003 L 269.108 23.735000000000003 L 269.108 21.110000000000003 L 259.097 21.110000000000003 L 256.323 22.310000000000002 L 256.323 23.735000000000003 C 258.53499999999997 23.735000000000003 260.10999999999996 24.935000000000002 260.10999999999996 27.934000000000005 L 260.10999999999996 48.519000000000005 C 260.10999999999996 51.593 262.13399999999996 52.456 264.19599999999997 52.456 Z" stroke-linecap="round" />
</g>
		<g transform="matrix(1 0 0 1 28.67 -5.5)"  >
<path style="stroke: none; stroke-width: 1; stroke-dasharray: none; stroke-linecap: butt; stroke-dashoffset: 0; stroke-linejoin: round; stroke-miterlimit: 1.41421; fill: rgb(255,255,255); fill-rule: nonzero; opacity: 1;" vector-effect="non-scaling-stroke"  transform=" translate(-278.67, -42)" d="M 277.432 52.456 C 280.694 52.456 282.981 51.068000000000005 283.88100000000003 49.044000000000004 L 284.069 49.044000000000004 L 284.219 52.081 L 286.993 52.081 L 286.993 31.534000000000002 L 283.656 31.534000000000002 L 283.656 43.419000000000004 C 283.656 47.206 281.63100000000003 49.644000000000005 278.144 49.644000000000005 C 275.22 49.644000000000005 273.683 48.069 273.683 45.069 L 273.683 31.534000000000002 L 270.346 31.534000000000002 L 270.346 45.257000000000005 C 270.346 50.243 273.008 52.456 277.432 52.456 Z" stroke-linecap="round" />
</g>
		<g transform="matrix(1 0 0 1 47.02 -10.72)"  >
<path style="stroke: none; stroke-width: 1; stroke-dasharray: none; stroke-linecap: butt; stroke-dashoffset: 0; stroke-linejoin: round; stroke-miterlimit: 1.41421; fill: rgb(255,255,255); fill-rule: nonzero; opacity: 1;" vector-effect="non-scaling-stroke"  transform=" translate(-297.02, -36.78)" d="M 298.504 52.456 C 299.329 52.456 300.22900000000004 52.343 301.204 51.893 L 300.754 49.456 C 300.30400000000003 49.606 299.779 49.719 299.329 49.719 C 298.204 49.719 297.754 49.269 297.754 48.106 L 297.754 28.572000000000003 C 297.754 26.134000000000004 296.85400000000004 24.635 295.767 23.885 L 295.804 23.735000000000003 L 303.416 23.735000000000003 L 303.416 21.110000000000003 L 293.405 21.110000000000003 L 290.63 22.310000000000002 L 290.63 23.735000000000003 C 292.842 23.735000000000003 294.417 24.935000000000002 294.417 27.934000000000005 L 294.417 48.519000000000005 C 294.417 51.593 296.44199999999995 52.456 298.50399999999996 52.456 Z" stroke-linecap="round" />
</g>
		<g transform="matrix(1 0 0 1 61.57 -5.69)"  >
<path style="stroke: none; stroke-width: 1; stroke-dasharray: none; stroke-linecap: butt; stroke-dashoffset: 0; stroke-linejoin: round; stroke-miterlimit: 1.41421; fill: rgb(255,255,255); fill-rule: nonzero; opacity: 1;" vector-effect="non-scaling-stroke"  transform=" translate(-311.57, -41.81)" d="M 310.09 52.456 C 311.327 52.456 312.452 52.306000000000004 313.42699999999996 51.931000000000004 L 312.902 49.419000000000004 C 312.265 49.644000000000005 311.55199999999996 49.75600000000001 310.727 49.75600000000001 C 308.178 49.75600000000001 306.678 48.74400000000001 306.678 46.49400000000001 C 306.678 44.09400000000001 308.29 42.89500000000001 313.389 42.55700000000001 L 316.539 42.33200000000001 L 316.539 52.08100000000001 L 319.83799999999997 52.08100000000001 L 319.83799999999997 38.20800000000001 C 319.83799999999997 33.37100000000001 317.289 31.159000000000013 312.03999999999996 31.159000000000013 C 308.92799999999994 31.159000000000013 306.34 31.946000000000012 304.91599999999994 32.69600000000001 L 304.91599999999994 35.808000000000014 C 306.93999999999994 34.60800000000001 309.2269999999999 33.896000000000015 311.73999999999995 33.896000000000015 C 315.18899999999996 33.896000000000015 316.53899999999993 35.171000000000014 316.53899999999993 38.39500000000002 L 316.53899999999993 39.557000000000016 L 312.9389999999999 39.78200000000002 C 306.1149999999999 40.195000000000014 303.3029999999999 42.445000000000014 303.3029999999999 46.56900000000002 C 303.3029999999999 50.356000000000016 305.70299999999986 52.45600000000002 310.08999999999986 52.45600000000002 Z" stroke-linecap="round" />
</g>
		<g transform="matrix(1 0 0 1 83.77 -5.66)"  >
<path style="stroke: none; stroke-width: 1; stroke-dasharray: none; stroke-linecap: butt; stroke-dashoffset: 0; stroke-linejoin: round; stroke-miterlimit: 1.41421; fill: rgb(255,255,255); fill-rule: nonzero; opacity: 1;" vector-effect="non-scaling-stroke"  transform=" translate(-333.77, -41.84)" d="M 333.824 52.418 C 339.523 52.418 342.11 50.281 342.11 45.032 L 342.11 31.534 L 338.773 31.534 L 338.773 45.257 C 338.773 48.031 337.61100000000005 49.681 333.824 49.681 C 329.962 49.681 328.91200000000003 47.919 328.91200000000003 45.744 C 328.91200000000003 43.269 330.29900000000004 42.257 333.29900000000004 42.257 L 334.011 42.257 L 334.011 39.82 L 333.29900000000004 39.82 C 331.04900000000004 39.82 328.8 39.295 328.8 36.67 C 328.8 35.058 329.77500000000003 34.008 331.874 34.008 C 332.812 34.008 333.749 34.233000000000004 334.31100000000004 34.421 L 334.91100000000006 31.834 C 334.19900000000007 31.459 332.7370000000001 31.271 331.53700000000003 31.271 C 327.07500000000005 31.271 325.425 33.821 325.425 36.408 C 325.425 39.295 327.375 40.57 328.91200000000003 40.982 L 328.91200000000003 41.132 C 327.26200000000006 41.431999999999995 325.538 42.595 325.538 46.044 C 325.538 49.943 327.75 52.418 333.824 52.418 Z" stroke-linecap="round" />
</g>
		<g transform="matrix(1 0 0 1 84.16 -22.08)"  >
<path style="stroke: none; stroke-width: 1; stroke-dasharray: none; stroke-linecap: butt; stroke-dashoffset: 0; stroke-linejoin: round; stroke-miterlimit: 1.41421; fill: rgb(255,255,255); fill-rule: nonzero; opacity: 1;" vector-effect="non-scaling-stroke"  transform=" translate(-334.16, -25.42)" d="M 326.175 28.272 L 342.11 28.272 L 342.11 26.808999999999997 L 342.148 26.808999999999997 L 342.148 22.571999999999996 L 338.99800000000005 22.571999999999996 L 338.99800000000005 25.608999999999995 L 328.91200000000003 25.608999999999995 L 326.175 26.808999999999994 L 326.175 28.271999999999995 Z" stroke-linecap="round" />
</g>
		<g transform="matrix(1 0 0 1 106.08 -6.18)"  >
<path style="stroke: none; stroke-width: 1; stroke-dasharray: none; stroke-linecap: butt; stroke-dashoffset: 0; stroke-linejoin: round; stroke-miterlimit: 1.41421; fill: rgb(255,255,255); fill-rule: nonzero; opacity: 1;" vector-effect="non-scaling-stroke"  transform=" translate(-356.08, -41.32)" d="M 353.771 52.456 C 355.00800000000004 52.456 356.13300000000004 52.306000000000004 357.108 51.931000000000004 L 356.583 49.419000000000004 C 355.946 49.644000000000005 355.233 49.75600000000001 354.408 49.75600000000001 C 351.85900000000004 49.75600000000001 350.35900000000004 48.74400000000001 350.35900000000004 46.49400000000001 C 350.35900000000004 44.09400000000001 351.97100000000006 42.89500000000001 357.071 42.55700000000001 L 360.22 42.33200000000001 L 360.22 52.08100000000001 L 363.52000000000004 52.08100000000001 L 363.52000000000004 38.20800000000001 C 363.52000000000004 36.445000000000014 363.182 35.021000000000015 362.32000000000005 34.08300000000001 C 363.97 33.408000000000015 365.16900000000004 32.09600000000001 365.16900000000004 30.18400000000001 L 361.90700000000004 30.18400000000001 C 361.90700000000004 31.234000000000012 361.23300000000006 31.909000000000013 360.37000000000006 32.32100000000001 C 359.32000000000005 31.459000000000014 357.7080000000001 31.159000000000013 355.72100000000006 31.159000000000013 C 352.60900000000004 31.159000000000013 350.02200000000005 31.946000000000012 348.59700000000004 32.69600000000001 L 348.59700000000004 35.808000000000014 C 350.622 34.60800000000001 352.90900000000005 33.896000000000015 355.42100000000005 33.896000000000015 C 358.87000000000006 33.896000000000015 360.22 35.171000000000014 360.22 38.39500000000002 L 360.22 39.557000000000016 L 356.62100000000004 39.78200000000002 C 349.797 40.195000000000014 346.985 42.445000000000014 346.985 46.56900000000002 C 346.985 50.356000000000016 349.384 52.45600000000002 353.771 52.45600000000002 Z" stroke-linecap="round" />
</g>
		<g transform="matrix(1 0 0 1 122.87 -5.88)"  >
<path style="stroke: none; stroke-width: 1; stroke-dasharray: none; stroke-linecap: butt; stroke-dashoffset: 0; stroke-linejoin: round; stroke-miterlimit: 1.41421; fill: rgb(255,255,255); fill-rule: nonzero; opacity: 1;" vector-effect="non-scaling-stroke"  transform=" translate(-372.87, -41.62)" d="M 375.443 52.081 L 378.78 52.081 L 378.78 37.008 C 378.78 32.733000000000004 376.30499999999995 31.159000000000002 372.40599999999995 31.159000000000002 C 369.85599999999994 31.159000000000002 367.98199999999997 31.796000000000003 366.96899999999994 32.284000000000006 L 366.96899999999994 35.28300000000001 C 368.4309999999999 34.458000000000006 369.96899999999994 33.93300000000001 371.7679999999999 33.93300000000001 C 374.4309999999999 33.93300000000001 375.4429999999999 35.05800000000001 375.4429999999999 37.495000000000005 L 375.4429999999999 52.081 Z" stroke-linecap="round" />
</g>
		<g transform="matrix(1 0 0 1 140.98 -5.69)"  >
<path style="stroke: none; stroke-width: 1; stroke-dasharray: none; stroke-linecap: butt; stroke-dashoffset: 0; stroke-linejoin: round; stroke-miterlimit: 1.41421; fill: rgb(255,255,255); fill-rule: nonzero; opacity: 1;" vector-effect="non-scaling-stroke"  transform=" translate(-390.98, -41.81)" d="M 390.628 52.456 C 396.55199999999996 52.456 398.652 49.606 398.652 46.456 C 398.652 42.782000000000004 395.69 41.32 392.091 40.082 C 388.154 38.733000000000004 386.916 38.058 386.916 36.408 C 386.916 35.096000000000004 388.116 33.896 391.491 33.896 C 393.853 33.896 396.215 34.571 397.49 35.171 L 397.49 32.359 C 396.29 31.609 394.003 31.159000000000002 391.603 31.159000000000002 C 386.016 31.159000000000002 383.579 33.446000000000005 383.579 36.558 C 383.579 40.12 386.129 41.62 390.891 43.119 C 393.96500000000003 44.094 395.315 45.069 395.315 46.756 C 395.315 48.669 393.365 49.681 390.703 49.681 C 388.191 49.681 385.866 48.931 384.292 48.294 L 383.31699999999995 50.992999999999995 C 385.07899999999995 51.78099999999999 387.66599999999994 52.455999999999996 390.62799999999993 52.455999999999996 Z" stroke-linecap="round" />
</g>
		<g transform="matrix(1 0 0 1 161.04 -6.18)"  >
<path style="stroke: none; stroke-width: 1; stroke-dasharray: none; stroke-linecap: butt; stroke-dashoffset: 0; stroke-linejoin: round; stroke-miterlimit: 1.41421; fill: rgb(255,255,255); fill-rule: nonzero; opacity: 1;" vector-effect="non-scaling-stroke"  transform=" translate(-411.04, -41.32)" d="M 408.738 52.456 C 409.975 52.456 411.1 52.306000000000004 412.075 51.931000000000004 L 411.55 49.419000000000004 C 410.913 49.644000000000005 410.2 49.75600000000001 409.37600000000003 49.75600000000001 C 406.826 49.75600000000001 405.326 48.74400000000001 405.326 46.49400000000001 C 405.326 44.09400000000001 406.93800000000005 42.89500000000001 412.038 42.55700000000001 L 415.187 42.33200000000001 L 415.187 52.08100000000001 L 418.487 52.08100000000001 L 418.487 38.20800000000001 C 418.487 36.445000000000014 418.149 35.021000000000015 417.28700000000003 34.08300000000001 C 418.937 33.408000000000015 420.13700000000006 32.09600000000001 420.13700000000006 30.18400000000001 L 416.8740000000001 30.18400000000001 C 416.8740000000001 31.234000000000012 416.2000000000001 31.909000000000013 415.3370000000001 32.32100000000001 C 414.2870000000001 31.459000000000014 412.6750000000001 31.159000000000013 410.6880000000001 31.159000000000013 C 407.5760000000001 31.159000000000013 404.9890000000001 31.946000000000012 403.5640000000001 32.69600000000001 L 403.5640000000001 35.808000000000014 C 405.58900000000006 34.60800000000001 407.8760000000001 33.896000000000015 410.3880000000001 33.896000000000015 C 413.8370000000001 33.896000000000015 415.18700000000007 35.171000000000014 415.18700000000007 38.39500000000002 L 415.18700000000007 39.557000000000016 L 411.5880000000001 39.78200000000002 C 404.76400000000007 40.195000000000014 401.95200000000006 42.445000000000014 401.95200000000006 46.56900000000002 C 401.95200000000006 50.356000000000016 404.35100000000006 52.45600000000002 408.73800000000006 52.45600000000002 Z" stroke-linecap="round" />
</g>
		<g transform="matrix(1 0 0 1 182.92 -5.5)"  >
<path style="stroke: none; stroke-width: 1; stroke-dasharray: none; stroke-linecap: butt; stroke-dashoffset: 0; stroke-linejoin: round; stroke-miterlimit: 1.41421; fill: rgb(255,255,255); fill-rule: nonzero; opacity: 1;" vector-effect="non-scaling-stroke"  transform=" translate(-432.92, -42)" d="M 431.685 52.456 C 434.947 52.456 437.234 51.068000000000005 438.134 49.044000000000004 L 438.321 49.044000000000004 L 438.471 52.081 L 441.246 52.081 L 441.246 31.534000000000002 L 437.909 31.534000000000002 L 437.909 43.419000000000004 C 437.909 47.206 435.884 49.644000000000005 432.397 49.644000000000005 C 429.473 49.644000000000005 427.935 48.069 427.935 45.069 L 427.935 31.534000000000002 L 424.598 31.534000000000002 L 424.598 45.257000000000005 C 424.598 50.243 427.26 52.456 431.685 52.456 Z" stroke-linecap="round" />
</g>
		<g transform="matrix(1 0 0 1 201.54 -5.5)"  >
<path style="stroke: none; stroke-width: 1; stroke-dasharray: none; stroke-linecap: butt; stroke-dashoffset: 0; stroke-linejoin: round; stroke-miterlimit: 1.41421; fill: rgb(255,255,255); fill-rule: nonzero; opacity: 1;" vector-effect="non-scaling-stroke"  transform=" translate(-451.54, -42)" d="M 452.232 52.456 C 453.057 52.456 453.95700000000005 52.343 454.93100000000004 51.893 L 454.482 49.456 C 454.03200000000004 49.606 453.507 49.719 453.057 49.719 C 451.932 49.719 451.482 49.269 451.482 48.106 L 451.482 31.534000000000002 L 448.14500000000004 31.534000000000002 L 448.14500000000004 48.519000000000005 C 448.14500000000004 51.593 450.17 52.456 452.232 52.456 Z" stroke-linecap="round" />
</g>
		<g transform="matrix(1 0 0 1 217.08 -5.88)"  >
<path style="stroke: none; stroke-width: 1; stroke-dasharray: none; stroke-linecap: butt; stroke-dashoffset: 0; stroke-linejoin: round; stroke-miterlimit: 1.41421; fill: rgb(255,255,255); fill-rule: nonzero; opacity: 1;" vector-effect="non-scaling-stroke"  transform=" translate(-467.08, -41.62)" d="M 458.756 52.081 L 462.09299999999996 52.081 L 462.09299999999996 40.19500000000001 C 462.09299999999996 36.708000000000006 464.08 33.971000000000004 467.60499999999996 33.971000000000004 C 470.52899999999994 33.971000000000004 472.06699999999995 35.54600000000001 472.06699999999995 38.545 L 472.06699999999995 52.081 L 475.40399999999994 52.081 L 475.40399999999994 38.358000000000004 C 475.40399999999994 33.371 472.70399999999995 31.159000000000006 468.24199999999996 31.159000000000006 C 465.05499999999995 31.159000000000006 462.693 32.54600000000001 461.83099999999996 34.79600000000001 L 461.681 34.79600000000001 L 461.08099999999996 31.534000000000006 L 458.756 31.534000000000006 L 458.756 52.081 Z" stroke-linecap="round" />
</g>
		<g transform="matrix(1 0 0 1 240.74 -6.37)"  >
<path style="stroke: none; stroke-width: 1; stroke-dasharray: none; stroke-linecap: butt; stroke-dashoffset: 0; stroke-linejoin: round; stroke-miterlimit: 1.41421; fill: rgb(255,255,255); fill-rule: nonzero; opacity: 1;" vector-effect="non-scaling-stroke"  transform=" translate(-490.74, -41.13)" d="M 481.478 52.081 L 484.815 52.081 L 484.815 48.106 C 484.815 45.594 485.79 43.494 490.326 43.494 L 491.564 43.494 L 491.564 40.757 L 490.326 40.757 C 487.439 40.757 486.052 41.207 484.927 43.157 L 484.815 43.119 L 484.815 38.958 C 484.815 35.620999999999995 486.539 33.933 489.951 33.933 C 493.326 33.933 495.088 35.621 495.088 38.958 L 495.088 52.080999999999996 L 498.425 52.080999999999996 L 498.425 38.958 C 498.425 36.894999999999996 498.01300000000003 35.208 496.963 34.158 C 498.725 33.521 500 32.171 500 30.184 L 496.738 30.184 C 496.738 31.309 495.913 32.059 494.976 32.396 C 493.776 31.496000000000002 492.089 31.159 489.951 31.159 C 484.02700000000004 31.159 481.478 33.933 481.478 38.958 L 481.478 52.080999999999996 Z" stroke-linecap="round" />
</g>
		<g transform="matrix(1 0 0 1 -113.47 23.76)"  >
<path style="stroke: none; stroke-width: 1; stroke-dasharray: none; stroke-linecap: butt; stroke-dashoffset: 0; stroke-linejoin: round; stroke-miterlimit: 1.41421; fill: rgb(255,255,255); fill-rule: nonzero; opacity: 1;" vector-effect="non-scaling-stroke"  transform=" translate(-136.53, -71.26)" d="M 135.38 77.549 C 135.952 77.549 136.482 77.46400000000001 136.927 77.25200000000001 L 136.694 75.85400000000001 C 136.439 75.98100000000001 136.12099999999998 76.04400000000001 135.761 76.04400000000001 C 134.744 76.04400000000001 134.108 75.49300000000001 134.108 74.17900000000002 C 134.108 72.80200000000002 134.786 72.08100000000002 136.8 71.91200000000002 L 138.241 71.78500000000003 L 138.241 77.33700000000002 L 140.02100000000002 77.33700000000002 L 140.02100000000002 69.47500000000002 C 140.02100000000002 68.45700000000002 139.85100000000003 67.67300000000002 139.42800000000003 67.14300000000003 C 140.23300000000003 66.78300000000003 140.741 66.04100000000003 140.741 64.96100000000003 L 139.067 64.96100000000003 C 139.067 65.51200000000003 138.81300000000002 65.89300000000003 138.47400000000002 66.10500000000003 C 137.96500000000003 65.68100000000003 137.245 65.51200000000003 136.35500000000002 65.51200000000003 C 134.91400000000002 65.51200000000003 133.72700000000003 65.95700000000002 133.091 66.38000000000002 L 133.091 68.07600000000002 C 133.981 67.39800000000002 135.062 67.01600000000002 136.185 67.01600000000002 C 137.647 67.01600000000002 138.241 67.73700000000002 138.241 69.58100000000002 L 138.241 70.25900000000001 L 136.567 70.38600000000001 C 133.578 70.59800000000001 132.328 71.891 132.328 74.22200000000001 C 132.328 76.36200000000001 133.409 77.549 135.38 77.549 Z" stroke-linecap="round" />
</g>
		<g transform="matrix(1 0 0 1 -103.35 24.03)"  >
<path style="stroke: none; stroke-width: 1; stroke-dasharray: none; stroke-linecap: butt; stroke-dashoffset: 0; stroke-linejoin: round; stroke-miterlimit: 1.41421; fill: rgb(255,255,255); fill-rule: nonzero; opacity: 1;" vector-effect="non-scaling-stroke"  transform=" translate(-146.65, -71.53)" d="M 144.98 77.549 C 145.404 77.549 145.86999999999998 77.48500000000001 146.29399999999998 77.25200000000001 L 146.06099999999998 75.89600000000002 C 145.891 75.98100000000001 145.658 76.04400000000001 145.44599999999997 76.04400000000001 C 144.95899999999997 76.04400000000001 144.74699999999996 75.79 144.74699999999996 75.13300000000001 L 144.74699999999996 73.03500000000001 C 144.74699999999996 71.53000000000002 145.36199999999997 71.12800000000001 146.18799999999996 71.10600000000001 L 146.33599999999996 70.11000000000001 L 144.55599999999995 68.96600000000001 C 144.55599999999995 67.843 145.31899999999996 67.016 146.61199999999997 67.016 C 147.88299999999995 67.016 148.81599999999997 67.75800000000001 148.81599999999997 69.68700000000001 L 148.81599999999997 77.33700000000002 L 150.59599999999998 77.33700000000002 L 150.59599999999998 69.49600000000002 C 150.59599999999998 66.67700000000002 148.85799999999998 65.51200000000003 146.65399999999997 65.51200000000003 C 144.15399999999997 65.51200000000003 142.71199999999996 67.14300000000003 142.71199999999996 68.86000000000003 L 142.71199999999996 69.55900000000003 L 144.61999999999995 70.44900000000003 L 144.59899999999996 70.51300000000002 C 143.62399999999997 70.83100000000002 142.96699999999996 71.48800000000001 142.96699999999996 73.24700000000001 L 142.96699999999996 75.36600000000001 C 142.96699999999996 77.08300000000001 143.87799999999996 77.549 144.97999999999996 77.549 Z" stroke-linecap="round" />
</g>
		<g transform="matrix(1 0 0 1 -94.74 23.92)"  >
<path style="stroke: none; stroke-width: 1; stroke-dasharray: none; stroke-linecap: butt; stroke-dashoffset: 0; stroke-linejoin: round; stroke-miterlimit: 1.41421; fill: rgb(255,255,255); fill-rule: nonzero; opacity: 1;" vector-effect="non-scaling-stroke"  transform=" translate(-155.26, -71.42)" d="M 156.191 77.337 L 157.992 77.337 L 157.992 68.796 C 157.992 66.402 156.80599999999998 65.512 155.02499999999998 65.512 C 153.85999999999999 65.512 152.99099999999999 65.872 152.52499999999998 66.147 L 152.52499999999998 67.80000000000001 C 153.13899999999998 67.31300000000002 153.81699999999998 67.016 154.60199999999998 67.016 C 155.74599999999998 67.016 156.19099999999997 67.673 156.19099999999997 69.072 L 156.19099999999997 77.337 Z" stroke-linecap="round" />
</g>
		<g transform="matrix(1 0 0 1 -85.24 24.14)"  >
<path style="stroke: none; stroke-width: 1; stroke-dasharray: none; stroke-linecap: butt; stroke-dashoffset: 0; stroke-linejoin: round; stroke-miterlimit: 1.41421; fill: rgb(255,255,255); fill-rule: nonzero; opacity: 1;" vector-effect="non-scaling-stroke"  transform=" translate(-164.76, -71.64)" d="M 164.774 77.549 C 167.487 77.549 168.61 76.00200000000001 168.61 73.183 L 168.61 65.724 L 166.83 65.724 L 166.83 73.183 C 166.83 75.09100000000001 166.173 76.04400000000001 164.774 76.04400000000001 C 163.354 76.04400000000001 162.697 75.09100000000001 162.697 73.183 L 162.697 65.724 L 160.917 65.724 L 160.917 73.183 C 160.917 76.00200000000001 162.04 77.549 164.774 77.549 Z" stroke-linecap="round" />
</g>
		<g transform="matrix(1 0 0 1 -82.44 14.85)"  >
<path style="stroke: none; stroke-width: 1; stroke-dasharray: none; stroke-linecap: butt; stroke-dashoffset: 0; stroke-linejoin: round; stroke-miterlimit: 1.41421; fill: rgb(255,255,255); fill-rule: nonzero; opacity: 1;" vector-effect="non-scaling-stroke"  transform=" translate(-167.56, -62.35)" d="M 166.385 63.859 L 170.708 63.859 L 170.708 62.46 L 166.618 62.46 C 166.194 62.46 166.024 62.142 166.024 61.782000000000004 C 166.024 61.54900000000001 166.067 61.252 166.109 61.125 L 164.71 60.849 C 164.52 61.166999999999994 164.41400000000002 61.717999999999996 164.41400000000002 62.120999999999995 C 164.41400000000002 63.032 164.92200000000003 63.858999999999995 166.38500000000002 63.858999999999995 Z" stroke-linecap="round" />
</g>
		<g transform="matrix(1 0 0 1 -74.6 24.14)"  >
<path style="stroke: none; stroke-width: 1; stroke-dasharray: none; stroke-linecap: butt; stroke-dashoffset: 0; stroke-linejoin: round; stroke-miterlimit: 1.41421; fill: rgb(255,255,255); fill-rule: nonzero; opacity: 1;" vector-effect="non-scaling-stroke"  transform=" translate(-175.4, -71.64)" d="M 174.735 77.549 C 176.21800000000002 77.549 177.235 76.786 177.61700000000002 75.62100000000001 L 177.70200000000003 75.62100000000001 L 177.85000000000002 77.337 L 179.27 77.337 L 179.27 65.724 L 177.49 65.724 L 177.49 72.50500000000001 C 177.49 74.64600000000002 176.663 76.02300000000001 175.18 76.02300000000001 C 173.972 76.02300000000001 173.315 75.13300000000001 173.315 73.41600000000001 L 173.315 65.72400000000002 L 171.534 65.72400000000002 L 171.534 73.50100000000002 C 171.534 76.32000000000002 172.721 77.54900000000002 174.73499999999999 77.54900000000002 Z" stroke-linecap="round" />
</g>
		<g transform="matrix(1 0 0 1 -65.73 24.14)"  >
<path style="stroke: none; stroke-width: 1; stroke-dasharray: none; stroke-linecap: butt; stroke-dashoffset: 0; stroke-linejoin: round; stroke-miterlimit: 1.41421; fill: rgb(255,255,255); fill-rule: nonzero; opacity: 1;" vector-effect="non-scaling-stroke"  transform=" translate(-184.27, -71.64)" d="M 184.61 77.549 C 185.055 77.549 185.5 77.48500000000001 185.924 77.25200000000001 L 185.71200000000002 75.89600000000002 C 185.52200000000002 75.98100000000001 185.28900000000002 76.04400000000001 185.098 76.04400000000001 C 184.61 76.04400000000001 184.42000000000002 75.79 184.42000000000002 75.13300000000001 L 184.42000000000002 65.724 L 182.61800000000002 65.724 L 182.61800000000002 75.366 C 182.61800000000002 77.083 183.508 77.549 184.61 77.549 Z" stroke-linecap="round" />
</g>
		<g transform="matrix(1 0 0 1 -58.19 23.92)"  >
<path style="stroke: none; stroke-width: 1; stroke-dasharray: none; stroke-linecap: butt; stroke-dashoffset: 0; stroke-linejoin: round; stroke-miterlimit: 1.41421; fill: rgb(255,255,255); fill-rule: nonzero; opacity: 1;" vector-effect="non-scaling-stroke"  transform=" translate(-191.81, -71.42)" d="M 187.938 77.337 L 189.718 77.337 L 189.718 70.555 C 189.718 68.60600000000001 190.566 67.037 192.028 67.037 C 193.236 67.037 193.893 67.92800000000001 193.893 69.644 L 193.893 77.337 L 195.673 77.337 L 195.673 69.559 C 195.673 66.741 194.507 65.512 192.452 65.512 C 190.989 65.512 189.972 66.275 189.591 67.56700000000001 L 189.506 67.56700000000001 L 189.209 65.724 L 187.93800000000002 65.724 L 187.93800000000002 77.337 Z" stroke-linecap="round" />
</g>
		<g transform="matrix(1 0 0 1 -47.46 23.92)"  >
<path style="stroke: none; stroke-width: 1; stroke-dasharray: none; stroke-linecap: butt; stroke-dashoffset: 0; stroke-linejoin: round; stroke-miterlimit: 1.41421; fill: rgb(255,255,255); fill-rule: nonzero; opacity: 1;" vector-effect="non-scaling-stroke"  transform=" translate(-202.54, -71.42)" d="M 198.598 77.337 L 200.37800000000001 77.337 L 200.37800000000001 75.048 C 200.37800000000001 73.628 200.78 72.44200000000001 202.73000000000002 72.44200000000001 L 203.239 72.44200000000001 L 203.239 70.93700000000001 L 202.73000000000002 70.93700000000001 C 201.501 70.93700000000001 200.90800000000002 71.19100000000002 200.44100000000003 72.293 L 200.37800000000004 72.272 L 200.37800000000004 69.87700000000001 C 200.37800000000004 67.97000000000001 201.09800000000004 67.016 202.51800000000003 67.016 C 203.98000000000002 67.016 204.68000000000004 67.97 204.68000000000004 69.87700000000001 L 204.68000000000004 77.337 L 206.48100000000002 77.337 L 206.48100000000002 69.87700000000001 C 206.48100000000002 67.05900000000001 205.294 65.51200000000001 202.53900000000002 65.51200000000001 C 199.78400000000002 65.51200000000001 198.598 67.05900000000001 198.598 69.87700000000001 L 198.598 77.337 Z" stroke-linecap="round" />
</g>
		<g transform="matrix(1 0 0 1 -38.76 21.2)"  >
<path style="stroke: none; stroke-width: 1; stroke-dasharray: none; stroke-linecap: butt; stroke-dashoffset: 0; stroke-linejoin: round; stroke-miterlimit: 1.41421; fill: rgb(255,255,255); fill-rule: nonzero; opacity: 1;" vector-effect="non-scaling-stroke"  transform=" translate(-211.24, -68.7)" d="M 211.97 77.549 C 212.415 77.549 212.85999999999999 77.48500000000001 213.284 77.25200000000001 L 213.072 75.89600000000002 C 212.881 75.98100000000001 212.648 76.04400000000001 212.458 76.04400000000001 C 211.97 76.04400000000001 211.779 75.79 211.779 75.13300000000001 L 211.779 65.724 L 211.758 65.724 L 211.758 64.007 C 211.758 62.629000000000005 211.377 61.782000000000004 210.86800000000002 61.358000000000004 L 210.889 61.273 L 214.15300000000002 61.273 L 214.15300000000002 59.853 L 209.70300000000003 59.853 L 208.32500000000005 60.489000000000004 L 208.32500000000005 61.273 C 209.30000000000004 61.273 209.97800000000004 61.951 209.97800000000004 63.647000000000006 L 209.97800000000004 75.366 C 209.97800000000004 77.083 210.86800000000002 77.549 211.97000000000003 77.549 Z" stroke-linecap="round" />
</g>
		<g transform="matrix(1 0 0 1 -31.03 24.14)"  >
<path style="stroke: none; stroke-width: 1; stroke-dasharray: none; stroke-linecap: butt; stroke-dashoffset: 0; stroke-linejoin: round; stroke-miterlimit: 1.41421; fill: rgb(255,255,255); fill-rule: nonzero; opacity: 1;" vector-effect="non-scaling-stroke"  transform=" translate(-218.97, -71.64)" d="M 218.307 77.549 C 219.79 77.549 220.807 76.786 221.189 75.62100000000001 L 221.274 75.62100000000001 L 221.422 77.337 L 222.84199999999998 77.337 L 222.84199999999998 65.724 L 221.06199999999998 65.724 L 221.06199999999998 72.50500000000001 C 221.06199999999998 74.64600000000002 220.23499999999999 76.02300000000001 218.75199999999998 76.02300000000001 C 217.54399999999998 76.02300000000001 216.88699999999997 75.13300000000001 216.88699999999997 73.41600000000001 L 216.88699999999997 65.72400000000002 L 215.10699999999997 65.72400000000002 L 215.10699999999997 73.50100000000002 C 215.10699999999997 76.32000000000002 216.29299999999998 77.54900000000002 218.30699999999996 77.54900000000002 Z" stroke-linecap="round" />
</g>
		<g transform="matrix(1 0 0 1 -22.27 21.2)"  >
<path style="stroke: none; stroke-width: 1; stroke-dasharray: none; stroke-linecap: butt; stroke-dashoffset: 0; stroke-linejoin: round; stroke-miterlimit: 1.41421; fill: rgb(255,255,255); fill-rule: nonzero; opacity: 1;" vector-effect="non-scaling-stroke"  transform=" translate(-227.73, -68.7)" d="M 228.458 77.549 C 228.903 77.549 229.34799999999998 77.48500000000001 229.772 77.25200000000001 L 229.56 75.89600000000002 C 229.369 75.98100000000001 229.136 76.04400000000001 228.945 76.04400000000001 C 228.458 76.04400000000001 228.267 75.79 228.267 75.13300000000001 L 228.267 65.724 L 228.246 65.724 L 228.246 64.007 C 228.246 62.629000000000005 227.865 61.782000000000004 227.35600000000002 61.358000000000004 L 227.377 61.273 L 230.64100000000002 61.273 L 230.64100000000002 59.853 L 226.19000000000003 59.853 L 224.81300000000002 60.489000000000004 L 224.81300000000002 61.273 C 225.788 61.273 226.466 61.951 226.466 63.647000000000006 L 226.466 75.366 C 226.466 77.083 227.356 77.549 228.458 77.549 Z" stroke-linecap="round" />
</g>
		<g transform="matrix(1 0 0 1 -15.05 24.03)"  >
<path style="stroke: none; stroke-width: 1; stroke-dasharray: none; stroke-linecap: butt; stroke-dashoffset: 0; stroke-linejoin: round; stroke-miterlimit: 1.41421; fill: rgb(255,255,255); fill-rule: nonzero; opacity: 1;" vector-effect="non-scaling-stroke"  transform=" translate(-234.95, -71.53)" d="M 234.159 77.549 C 234.731 77.549 235.261 77.46400000000001 235.706 77.25200000000001 L 235.47299999999998 75.85400000000001 C 235.219 75.98100000000001 234.90099999999998 76.04400000000001 234.54 76.04400000000001 C 233.523 76.04400000000001 232.887 75.49300000000001 232.887 74.17900000000002 C 232.887 72.80200000000002 233.565 72.08100000000002 235.579 71.91200000000002 L 237.02 71.78500000000003 L 237.02 77.33700000000002 L 238.8 77.33700000000002 L 238.8 69.47500000000002 C 238.8 66.78300000000002 237.48600000000002 65.51200000000003 235.13400000000001 65.51200000000003 C 233.693 65.51200000000003 232.50600000000003 65.95700000000002 231.87 66.38000000000002 L 231.87 68.07600000000002 C 232.76 67.39800000000002 233.841 67.01600000000002 234.964 67.01600000000002 C 236.426 67.01600000000002 237.02 67.73700000000002 237.02 69.58100000000002 L 237.02 70.25900000000001 L 235.346 70.38600000000001 C 232.358 70.59800000000001 231.107 71.891 231.107 74.22200000000001 C 231.107 76.36200000000001 232.188 77.549 234.159 77.549 Z" stroke-linecap="round" />
</g>
		<g transform="matrix(1 0 0 1 -4.63 24.05)"  >
<path style="stroke: none; stroke-width: 1; stroke-dasharray: none; stroke-linecap: butt; stroke-dashoffset: 0; stroke-linejoin: round; stroke-miterlimit: 1.41421; fill: rgb(255,255,255); fill-rule: nonzero; opacity: 1;" vector-effect="non-scaling-stroke"  transform=" translate(-245.37, -71.55)" d="M 245.391 77.528 C 248.04 77.528 249.248 76.32000000000001 249.248 73.35300000000001 L 249.248 65.724 L 247.447 65.724 L 247.447 73.48 C 247.447 75.069 246.98 76.02300000000001 245.391 76.02300000000001 C 243.78 76.02300000000001 243.357 75.00600000000001 243.357 73.77700000000002 C 243.357 72.33600000000001 243.929 71.76300000000002 245.179 71.76300000000002 L 245.497 71.76300000000002 L 245.497 70.42800000000003 L 245.179 70.42800000000003 C 244.225 70.42800000000003 243.293 70.11000000000003 243.293 68.60600000000002 C 243.293 67.69400000000002 243.696 67.08000000000003 244.586 67.08000000000003 C 244.967 67.08000000000003 245.37 67.20700000000002 245.603 67.31300000000003 L 245.9 65.89300000000003 C 245.561 65.68100000000003 244.904 65.57500000000003 244.31 65.57500000000003 C 242.254 65.57500000000003 241.492 67.01600000000003 241.492 68.47900000000003 C 241.492 70.11000000000003 242.339 70.85200000000003 243.06 71.06400000000002 L 243.06 71.14900000000002 C 242.318 71.31800000000001 241.534 71.95400000000002 241.534 73.92500000000001 C 241.534 76.129 242.572 77.528 245.391 77.528 Z" stroke-linecap="round" />
</g>
		<g transform="matrix(1 0 0 1 -4.41 14.77)"  >
<path style="stroke: none; stroke-width: 1; stroke-dasharray: none; stroke-linecap: butt; stroke-dashoffset: 0; stroke-linejoin: round; stroke-miterlimit: 1.41421; fill: rgb(255,255,255); fill-rule: nonzero; opacity: 1;" vector-effect="non-scaling-stroke"  transform=" translate(-245.59, -62.27)" d="M 241.915 63.859 L 249.248 63.859 L 249.248 63.074000000000005 L 249.26899999999998 63.074000000000005 L 249.26899999999998 60.68000000000001 L 247.63699999999997 60.68000000000001 L 247.63699999999997 62.41700000000001 L 243.29299999999998 62.41700000000001 L 241.915 63.07400000000001 L 241.915 63.85900000000001 Z" stroke-linecap="round" />
</g>
		<g transform="matrix(1 0 0 1 6.8 24.03)"  >
<path style="stroke: none; stroke-width: 1; stroke-dasharray: none; stroke-linecap: butt; stroke-dashoffset: 0; stroke-linejoin: round; stroke-miterlimit: 1.41421; fill: rgb(255,255,255); fill-rule: nonzero; opacity: 1;" vector-effect="non-scaling-stroke"  transform=" translate(-256.8, -71.53)" d="M 253.169 77.337 L 254.88500000000002 77.337 L 256.305 71.10600000000001 C 256.454 70.25900000000001 256.623 69.77100000000002 256.771 68.47900000000001 L 256.83500000000004 68.47900000000001 C 256.96200000000005 69.77100000000002 257.11100000000005 70.40700000000001 257.28000000000003 71.10600000000001 L 258.70000000000005 77.337 L 260.45900000000006 77.337 L 262.09100000000007 65.724 L 260.24700000000007 65.724 L 259.65400000000005 70.598 C 259.54800000000006 71.42399999999999 259.48400000000004 72.717 259.357 74.53999999999999 L 259.293 74.53999999999999 C 258.997 72.696 258.721 71.42399999999999 258.53000000000003 70.53399999999999 L 257.45000000000005 65.72399999999999 L 256.136 65.72399999999999 L 255.05500000000004 70.53399999999999 C 254.86400000000003 71.42399999999999 254.58900000000003 72.696 254.29200000000003 74.53999999999999 L 254.22800000000004 74.53999999999999 C 254.10100000000003 72.717 254.03800000000004 71.42399999999999 253.95300000000003 70.59799999999998 L 253.33800000000002 65.72399999999999 L 251.51600000000002 65.72399999999999 L 253.169 77.33699999999999 Z" stroke-linecap="round" />
</g>
		<g transform="matrix(1 0 0 1 17.25 24.03)"  >
<path style="stroke: none; stroke-width: 1; stroke-dasharray: none; stroke-linecap: butt; stroke-dashoffset: 0; stroke-linejoin: round; stroke-miterlimit: 1.41421; fill: rgb(255,255,255); fill-rule: nonzero; opacity: 1;" vector-effect="non-scaling-stroke"  transform=" translate(-267.25, -71.53)" d="M 267.114 77.549 C 269.86899999999997 77.549 270.801 75.96000000000001 270.801 74.179 C 270.801 72.10300000000001 269.572 71.318 267.89799999999997 70.598 C 266.24499999999995 69.877 265.65099999999995 69.411 265.65099999999995 68.457 C 265.65099999999995 67.69399999999999 266.15999999999997 67.01599999999999 267.51599999999996 67.01599999999999 C 268.55499999999995 67.01599999999999 269.657 67.377 270.229 67.716 L 270.229 66.19 C 269.699 65.76599999999999 268.661 65.512 267.51599999999996 65.512 C 265.05799999999994 65.512 263.84999999999997 66.826 263.84999999999997 68.542 C 263.84999999999997 70.555 264.99399999999997 71.382 267.04999999999995 72.23 C 268.38499999999993 72.781 268.99999999999994 73.37400000000001 268.99999999999994 74.349 C 268.99999999999994 75.45100000000001 268.23699999999997 76.044 267.1139999999999 76.044 C 265.9899999999999 76.044 264.90899999999993 75.642 264.2099999999999 75.25999999999999 L 263.7009999999999 76.74399999999999 C 264.56999999999994 77.16799999999999 265.7999999999999 77.54899999999999 267.1139999999999 77.54899999999999 Z" stroke-linecap="round" />
</g>
		<g transform="matrix(1 0 0 1 24.63 23.99)"  >
<path style="stroke: none; stroke-width: 1; stroke-dasharray: none; stroke-linecap: butt; stroke-dashoffset: 0; stroke-linejoin: round; stroke-miterlimit: 1.41421; fill: rgb(255,255,255); fill-rule: nonzero; opacity: 1;" vector-effect="non-scaling-stroke"  transform=" translate(-274.63, -71.49)" d="M 274.361 70.026 L 276.86199999999997 70.026 L 276.86199999999997 68.585 L 274.573 68.585 C 274.128 68.585 274.001 68.309 274.001 67.949 C 274.001 67.694 274.044 67.398 274.10699999999997 67.271 L 272.68699999999995 67.016 C 272.518 67.313 272.38999999999993 67.80000000000001 272.38999999999993 68.203 C 272.38999999999993 69.13600000000001 272.9199999999999 70.026 274.36099999999993 70.026 Z M 274.361 75.96 L 276.86199999999997 75.96 L 276.86199999999997 74.518 L 274.573 74.518 C 274.128 74.518 274.001 74.243 274.001 73.883 C 274.001 73.628 274.044 73.332 274.10699999999997 73.205 L 272.68699999999995 72.95 C 272.518 73.247 272.38999999999993 73.73400000000001 272.38999999999993 74.137 C 272.38999999999993 75.069 272.9199999999999 75.96 274.36099999999993 75.96 Z" stroke-linecap="round" />
</g>
		<g transform="matrix(1 0 0 1 32.25 23.92)"  >
<path style="stroke: none; stroke-width: 1; stroke-dasharray: none; stroke-linecap: butt; stroke-dashoffset: 0; stroke-linejoin: round; stroke-miterlimit: 1.41421; fill: rgb(255,255,255); fill-rule: nonzero; opacity: 1;" vector-effect="non-scaling-stroke"  transform=" translate(-282.25, -71.42)" d="M 280.168 77.337 L 281.8 77.337 C 284.873 77.337 285.99600000000004 75.218 285.99600000000004 71.509 C 285.99600000000004 67.716 284.788 65.512 281.67300000000006 65.512 C 280.3380000000001 65.512 279.1720000000001 65.893 278.4940000000001 66.402 L 278.4940000000001 68.097 C 279.3420000000001 67.35499999999999 280.31700000000006 67.01599999999999 281.4190000000001 67.01599999999999 C 283.3680000000001 67.01599999999999 284.1740000000001 68.309 284.1740000000001 71.48799999999999 C 284.1740000000001 74.68799999999999 283.4320000000001 75.87499999999999 282.0330000000001 75.87499999999999 L 281.8420000000001 75.87499999999999 L 281.8420000000001 70.70399999999998 L 278.9810000000001 70.70399999999998 L 278.9810000000001 72.14499999999998 L 280.1680000000001 72.14499999999998 L 280.1680000000001 77.33699999999999 Z" stroke-linecap="round" />
</g>
		<g transform="matrix(1 0 0 1 42.12 24.03)"  >
<path style="stroke: none; stroke-width: 1; stroke-dasharray: none; stroke-linecap: butt; stroke-dashoffset: 0; stroke-linejoin: round; stroke-miterlimit: 1.41421; fill: rgb(255,255,255); fill-rule: nonzero; opacity: 1;" vector-effect="non-scaling-stroke"  transform=" translate(-292.12, -71.53)" d="M 291.951 77.549 C 294.918 77.549 296.04200000000003 75.36600000000001 296.04200000000003 71.61500000000001 C 296.04200000000003 67.906 294.812 65.51200000000001 291.761 65.51200000000001 C 290.468 65.51200000000001 289.23900000000003 65.89300000000001 288.56100000000004 66.33800000000001 L 288.56100000000004 68.034 C 289.408 67.37700000000001 290.44700000000006 67.016 291.50600000000003 67.016 C 293.49800000000005 67.016 294.21900000000005 68.45700000000001 294.21900000000005 71.59400000000001 C 294.21900000000005 75.218 293.32900000000006 76.066 291.93000000000006 76.066 C 290.61600000000004 76.066 289.9800000000001 75.324 289.9800000000001 72.569 L 289.9800000000001 72.145 L 291.97300000000007 72.145 L 291.97300000000007 70.704 L 288.3060000000001 70.704 C 288.2430000000001 71.36099999999999 288.2000000000001 72.018 288.2000000000001 72.58999999999999 C 288.2000000000001 76.04399999999998 289.4290000000001 77.54899999999999 291.9510000000001 77.54899999999999 Z" stroke-linecap="round" />
</g>
		<g transform="matrix(1 0 0 1 52.64 24.14)"  >
<path style="stroke: none; stroke-width: 1; stroke-dasharray: none; stroke-linecap: butt; stroke-dashoffset: 0; stroke-linejoin: round; stroke-miterlimit: 1.41421; fill: rgb(255,255,255); fill-rule: nonzero; opacity: 1;" vector-effect="non-scaling-stroke"  transform=" translate(-302.64, -71.64)" d="M 303.353 77.549 C 305.366 77.549 306.511 76.32000000000001 306.511 73.522 L 306.511 65.724 L 304.709 65.724 L 304.709 73.416 C 304.709 75.133 304.095 76.023 302.887 76.023 C 301.403 76.023 300.556 74.646 300.556 72.505 L 300.556 65.72399999999999 L 298.775 65.72399999999999 L 298.775 77.33699999999999 L 300.195 77.33699999999999 L 300.344 75.493 L 300.428 75.493 C 300.81 76.786 301.87 77.54899999999999 303.353 77.54899999999999 Z" stroke-linecap="round" />
</g>
		<g transform="matrix(1 0 0 1 61.39 24.14)"  >
<path style="stroke: none; stroke-width: 1; stroke-dasharray: none; stroke-linecap: butt; stroke-dashoffset: 0; stroke-linejoin: round; stroke-miterlimit: 1.41421; fill: rgb(255,255,255); fill-rule: nonzero; opacity: 1;" vector-effect="non-scaling-stroke"  transform=" translate(-311.39, -71.64)" d="M 311.724 77.549 C 312.169 77.549 312.614 77.48500000000001 313.038 77.25200000000001 L 312.826 75.89600000000002 C 312.63500000000005 75.98100000000001 312.40200000000004 76.04400000000001 312.21200000000005 76.04400000000001 C 311.72400000000005 76.04400000000001 311.5330000000001 75.79 311.5330000000001 75.13300000000001 L 311.5330000000001 65.724 L 309.7320000000001 65.724 L 309.7320000000001 75.366 C 309.7320000000001 77.083 310.62200000000007 77.549 311.7240000000001 77.549 Z" stroke-linecap="round" />
</g>
		<g transform="matrix(1 0 0 1 68.69 23.92)"  >
<path style="stroke: none; stroke-width: 1; stroke-dasharray: none; stroke-linecap: butt; stroke-dashoffset: 0; stroke-linejoin: round; stroke-miterlimit: 1.41421; fill: rgb(255,255,255); fill-rule: nonzero; opacity: 1;" vector-effect="non-scaling-stroke"  transform=" translate(-318.69, -71.42)" d="M 314.924 77.337 L 316.70399999999995 77.337 L 316.70399999999995 73.289 C 316.70399999999995 71.785 317.34 71.128 318.18799999999993 71.106 L 318.31499999999994 70.11 L 316.59799999999996 68.966 C 316.59799999999996 67.84299999999999 317.36099999999993 67.01599999999999 318.65399999999994 67.01599999999999 C 319.9049999999999 67.01599999999999 320.83699999999993 67.758 320.83699999999993 69.687 L 320.83699999999993 77.337 L 322.6169999999999 77.337 L 322.6169999999999 69.49600000000001 C 322.6169999999999 66.677 320.8789999999999 65.51200000000001 318.6749999999999 65.51200000000001 C 316.1959999999999 65.51200000000001 314.7549999999999 67.14300000000001 314.7549999999999 68.86000000000001 L 314.7549999999999 69.55900000000001 L 316.5979999999999 70.44900000000001 L 316.5769999999999 70.513 C 315.5809999999999 70.831 314.92399999999986 71.488 314.92399999999986 73.268 L 314.92399999999986 77.337 Z" stroke-linecap="round" />
</g>
		<g transform="matrix(1 0 0 1 78.86 24.03)"  >
<path style="stroke: none; stroke-width: 1; stroke-dasharray: none; stroke-linecap: butt; stroke-dashoffset: 0; stroke-linejoin: round; stroke-miterlimit: 1.41421; fill: rgb(255,255,255); fill-rule: nonzero; opacity: 1;" vector-effect="non-scaling-stroke"  transform=" translate(-328.86, -71.53)" d="M 328.064 77.549 C 328.636 77.549 329.166 77.46400000000001 329.61100000000005 77.25200000000001 L 329.37800000000004 75.85400000000001 C 329.12300000000005 75.98100000000001 328.80500000000006 76.04400000000001 328.44500000000005 76.04400000000001 C 327.42800000000005 76.04400000000001 326.79200000000003 75.49300000000001 326.79200000000003 74.17900000000002 C 326.79200000000003 72.80200000000002 327.47 72.08100000000002 329.48400000000004 71.91200000000002 L 330.925 71.78500000000003 L 330.925 77.33700000000002 L 332.705 77.33700000000002 L 332.705 69.47500000000002 C 332.705 66.78300000000002 331.39099999999996 65.51200000000003 329.039 65.51200000000003 C 327.597 65.51200000000003 326.411 65.95700000000002 325.775 66.38000000000002 L 325.775 68.07600000000002 C 326.66499999999996 67.39800000000002 327.746 67.01600000000002 328.86899999999997 67.01600000000002 C 330.33099999999996 67.01600000000002 330.92499999999995 67.73700000000002 330.92499999999995 69.58100000000002 L 330.92499999999995 70.25900000000001 L 329.24999999999994 70.38600000000001 C 326.26199999999994 70.59800000000001 325.01199999999994 71.891 325.01199999999994 74.22200000000001 C 325.01199999999994 76.36200000000001 326.09299999999996 77.549 328.06399999999996 77.549 Z" stroke-linecap="round" />
</g>
		<g transform="matrix(1 0 0 1 80.35 14.23)"  >
<path style="stroke: none; stroke-width: 1; stroke-dasharray: none; stroke-linecap: butt; stroke-dashoffset: 0; stroke-linejoin: round; stroke-miterlimit: 1.41421; fill: rgb(255,255,255); fill-rule: nonzero; opacity: 1;" vector-effect="non-scaling-stroke"  transform=" translate(-330.35, -61.73)" d="M 327.725 63.88 L 333.002 63.88 L 333.002 62.439 L 330.331 62.439 C 330.543 62.121 330.67 61.697 330.67 61.209 C 330.67 60.277 330.119 59.578 329.187 59.578 C 328.827 59.578 328.17 59.684000000000005 327.70300000000003 60.129000000000005 L 328.043 61.252 C 328.212 61.167 328.445 61.019000000000005 328.678 61.019000000000005 C 328.996 61.019000000000005 329.166 61.294000000000004 329.166 61.633 C 329.166 62.417 328.339 62.778000000000006 327.725 62.947 L 327.725 63.88 Z" stroke-linecap="round" />
</g>
		<g transform="matrix(1 0 0 1 87.37 23.92)"  >
<path style="stroke: none; stroke-width: 1; stroke-dasharray: none; stroke-linecap: butt; stroke-dashoffset: 0; stroke-linejoin: round; stroke-miterlimit: 1.41421; fill: rgb(255,255,255); fill-rule: nonzero; opacity: 1;" vector-effect="non-scaling-stroke"  transform=" translate(-337.37, -71.42)" d="M 338.3 77.337 L 340.101 77.337 L 340.101 68.796 C 340.101 66.402 338.914 65.512 337.134 65.512 C 335.969 65.512 335.1 65.872 334.63300000000004 66.147 L 334.63300000000004 67.80000000000001 C 335.24800000000005 67.31300000000002 335.92600000000004 67.016 336.71000000000004 67.016 C 337.855 67.016 338.3 67.673 338.3 69.072 L 338.3 77.337 Z" stroke-linecap="round" />
</g>
		<g transform="matrix(1 0 0 1 94.97 24.14)"  >
<path style="stroke: none; stroke-width: 1; stroke-dasharray: none; stroke-linecap: butt; stroke-dashoffset: 0; stroke-linejoin: round; stroke-miterlimit: 1.41421; fill: rgb(255,255,255); fill-rule: nonzero; opacity: 1;" vector-effect="non-scaling-stroke"  transform=" translate(-344.97, -71.64)" d="M 345.315 77.549 C 345.76 77.549 346.205 77.48500000000001 346.628 77.25200000000001 L 346.417 75.89600000000002 C 346.226 75.98100000000001 345.993 76.04400000000001 345.80199999999996 76.04400000000001 C 345.31499999999994 76.04400000000001 345.12399999999997 75.79 345.12399999999997 75.13300000000001 L 345.12399999999997 65.724 L 343.32199999999995 65.724 L 343.32199999999995 75.366 C 343.32199999999995 77.083 344.21299999999997 77.549 345.31499999999994 77.549 Z" stroke-linecap="round" />
</g>
		<g transform="matrix(1 0 0 1 101.27 23.92)"  >
<path style="stroke: none; stroke-width: 1; stroke-dasharray: none; stroke-linecap: butt; stroke-dashoffset: 0; stroke-linejoin: round; stroke-miterlimit: 1.41421; fill: rgb(255,255,255); fill-rule: nonzero; opacity: 1;" vector-effect="non-scaling-stroke"  transform=" translate(-351.27, -71.42)" d="M 349.193 77.337 L 350.825 77.337 C 353.89799999999997 77.337 355.021 75.218 355.021 71.509 C 355.021 67.716 353.813 65.512 350.697 65.512 C 349.362 65.512 348.197 65.893 347.519 66.402 L 347.519 68.097 C 348.366 67.35499999999999 349.341 67.01599999999999 350.443 67.01599999999999 C 352.393 67.01599999999999 353.198 68.309 353.198 71.48799999999999 C 353.198 74.68799999999999 352.45599999999996 75.87499999999999 351.058 75.87499999999999 L 350.867 75.87499999999999 L 350.867 70.70399999999998 L 348.00600000000003 70.70399999999998 L 348.00600000000003 72.14499999999998 L 349.19300000000004 72.14499999999998 L 349.19300000000004 77.33699999999999 Z" stroke-linecap="round" />
</g>
		<g transform="matrix(1 0 0 1 102.44 14.23)"  >
<path style="stroke: none; stroke-width: 1; stroke-dasharray: none; stroke-linecap: butt; stroke-dashoffset: 0; stroke-linejoin: round; stroke-miterlimit: 1.41421; fill: rgb(255,255,255); fill-rule: nonzero; opacity: 1;" vector-effect="non-scaling-stroke"  transform=" translate(-352.44, -61.73)" d="M 349.807 63.88 L 355.084 63.88 L 355.084 62.439 L 352.414 62.439 C 352.626 62.121 352.753 61.697 352.753 61.209 C 352.753 60.277 352.202 59.578 351.27 59.578 C 350.909 59.578 350.252 59.684000000000005 349.786 60.129000000000005 L 350.125 61.252 C 350.295 61.167 350.528 61.019000000000005 350.761 61.019000000000005 C 351.079 61.019000000000005 351.249 61.294000000000004 351.249 61.633 C 351.249 62.417 350.422 62.778000000000006 349.807 62.947 L 349.807 63.88 Z" stroke-linecap="round" />
</g>
		<g transform="matrix(1 0 0 1 109.32 23.92)"  >
<path style="stroke: none; stroke-width: 1; stroke-dasharray: none; stroke-linecap: butt; stroke-dashoffset: 0; stroke-linejoin: round; stroke-miterlimit: 1.41421; fill: rgb(255,255,255); fill-rule: nonzero; opacity: 1;" vector-effect="non-scaling-stroke"  transform=" translate(-359.32, -71.42)" d="M 360.255 77.337 L 362.057 77.337 L 362.057 68.796 C 362.057 66.402 360.87 65.512 359.09000000000003 65.512 C 357.92400000000004 65.512 357.055 65.872 356.58900000000006 66.147 L 356.58900000000006 67.80000000000001 C 357.20400000000006 67.31300000000002 357.88200000000006 67.016 358.66600000000005 67.016 C 359.81000000000006 67.016 360.25500000000005 67.673 360.25500000000005 69.072 L 360.25500000000005 77.337 Z" stroke-linecap="round" />
</g>
		<g transform="matrix(1 0 0 1 118.92 23.92)"  >
<path style="stroke: none; stroke-width: 1; stroke-dasharray: none; stroke-linecap: butt; stroke-dashoffset: 0; stroke-linejoin: round; stroke-miterlimit: 1.41421; fill: rgb(255,255,255); fill-rule: nonzero; opacity: 1;" vector-effect="non-scaling-stroke"  transform=" translate(-368.92, -71.42)" d="M 364.981 77.337 L 366.762 77.337 L 366.762 75.048 C 366.762 73.628 367.164 72.44200000000001 369.114 72.44200000000001 L 369.623 72.44200000000001 L 369.623 70.93700000000001 L 369.114 70.93700000000001 C 367.885 70.93700000000001 367.291 71.19100000000002 366.825 72.293 L 366.762 72.272 L 366.762 69.87700000000001 C 366.762 67.97000000000001 367.482 67.016 368.902 67.016 C 370.364 67.016 371.06399999999996 67.97 371.06399999999996 69.87700000000001 L 371.06399999999996 77.337 L 372.86499999999995 77.337 L 372.86499999999995 69.87700000000001 C 372.86499999999995 67.05900000000001 371.67799999999994 65.51200000000001 368.92299999999994 65.51200000000001 C 366.16799999999995 65.51200000000001 364.98099999999994 67.05900000000001 364.98099999999994 69.87700000000001 L 364.98099999999994 77.337 Z" stroke-linecap="round" />
</g>
		<g transform="matrix(1 0 0 1 121.66 33.28)"  >
<path style="stroke: none; stroke-width: 1; stroke-dasharray: none; stroke-linecap: butt; stroke-dashoffset: 0; stroke-linejoin: round; stroke-miterlimit: 1.41421; fill: rgb(255,255,255); fill-rule: nonzero; opacity: 1;" vector-effect="non-scaling-stroke"  transform=" translate(-371.66, -80.78)" d="M 371.297 82.868 L 372.865 82.868 L 372.865 79.98599999999999 C 372.865 79.18099999999998 372.48400000000004 78.69299999999998 371.615 78.69299999999998 C 371.276 78.69299999999998 370.788 78.73599999999999 370.449 78.88399999999999 L 370.576 80.15599999999999 C 370.682 80.11299999999999 370.788 80.071 370.937 80.071 C 371.17 80.071 371.297 80.241 371.297 80.601 L 371.297 82.868 Z" stroke-linecap="round" />
</g>
		<g transform="matrix(1 0 0 1 132.01 24.03)"  >
<path style="stroke: none; stroke-width: 1; stroke-dasharray: none; stroke-linecap: butt; stroke-dashoffset: 0; stroke-linejoin: round; stroke-miterlimit: 1.41421; fill: rgb(255,255,255); fill-rule: nonzero; opacity: 1;" vector-effect="non-scaling-stroke"  transform=" translate(-382.01, -71.53)" d="M 377.803 77.549 C 378.227 77.549 378.693 77.48500000000001 379.117 77.25200000000001 L 378.884 75.89600000000002 C 378.714 75.98100000000001 378.481 76.04400000000001 378.269 76.04400000000001 C 377.782 76.04400000000001 377.57 75.79 377.57 75.13300000000001 L 377.57 73.24700000000001 C 377.57 71.72100000000002 378.18399999999997 71.10600000000001 379.01099999999997 71.10600000000001 L 379.159 70.11000000000001 L 377.379 68.96600000000001 C 377.40000000000003 67.694 378.184 67.016 379.286 67.016 C 380.346 67.016 381.279 67.61 381.279 69.665 L 381.279 73.69200000000001 C 381.279 76.489 382.402 77.549 384.161 77.549 C 385.39 77.549 386.45 76.786 386.831 75.49300000000001 L 386.937 75.49300000000001 L 387.064 77.337 L 388.48400000000004 77.337 L 388.48400000000004 65.724 L 386.70400000000006 65.724 L 386.70400000000006 72.548 C 386.70400000000006 74.646 385.87700000000007 76.023 384.62700000000007 76.023 C 383.69500000000005 76.023 383.0590000000001 75.303 383.0590000000001 73.586 L 383.0590000000001 69.475 C 383.0590000000001 66.55 381.3420000000001 65.512 379.3080000000001 65.512 C 376.9760000000001 65.512 375.5350000000001 66.995 375.5350000000001 68.86 L 375.5350000000001 69.559 L 377.4430000000001 70.449 L 377.4210000000001 70.51299999999999 C 376.4470000000001 70.83099999999999 375.79000000000013 71.48799999999999 375.79000000000013 73.24699999999999 L 375.79000000000013 75.36599999999999 C 375.79000000000013 77.08299999999998 376.70100000000014 77.54899999999998 377.8030000000001 77.54899999999998 Z" stroke-linecap="round" />
</g>
		<g transform="matrix(1 0 0 1 145.49 23.92)"  >
<path style="stroke: none; stroke-width: 1; stroke-dasharray: none; stroke-linecap: butt; stroke-dashoffset: 0; stroke-linejoin: round; stroke-miterlimit: 1.41421; fill: rgb(255,255,255); fill-rule: nonzero; opacity: 1;" vector-effect="non-scaling-stroke"  transform=" translate(-395.49, -71.42)" d="M 391.621 77.337 L 393.40099999999995 77.337 L 393.40099999999995 70.555 C 393.40099999999995 68.60600000000001 394.24799999999993 67.037 395.71099999999996 67.037 C 396.919 67.037 397.57599999999996 67.92800000000001 397.57599999999996 69.644 L 397.57599999999996 77.337 L 399.35599999999994 77.337 L 399.35599999999994 69.559 C 399.35599999999994 66.741 398.18999999999994 65.512 396.13499999999993 65.512 C 394.6719999999999 65.512 393.6549999999999 66.275 393.27399999999994 67.56700000000001 L 393.18899999999996 67.56700000000001 L 392.89199999999994 65.724 L 391.6209999999999 65.724 L 391.6209999999999 77.337 Z" stroke-linecap="round" />
</g>
		<g transform="matrix(1 0 0 1 156.18 24.03)"  >
<path style="stroke: none; stroke-width: 1; stroke-dasharray: none; stroke-linecap: butt; stroke-dashoffset: 0; stroke-linejoin: round; stroke-miterlimit: 1.41421; fill: rgb(255,255,255); fill-rule: nonzero; opacity: 1;" vector-effect="non-scaling-stroke"  transform=" translate(-406.18, -71.53)" d="M 402.429 77.337 L 404.20899999999995 77.337 L 404.20899999999995 72.908 L 406.07399999999996 70.577 C 407.51499999999993 70.704 408.12999999999994 71.7 408.12999999999994 73.226 L 408.12999999999994 77.337 L 409.9309999999999 77.337 L 409.9309999999999 73.226 C 409.9309999999999 70.852 408.9559999999999 69.411 407.1339999999999 69.242 L 409.8669999999999 65.787 L 409.8669999999999 65.724 L 407.8329999999999 65.724 L 404.2509999999999 70.789 L 404.20899999999995 70.789 L 404.20899999999995 65.724 L 402.429 65.724 L 402.429 77.337 Z" stroke-linecap="round" />
</g>
		<g transform="matrix(1 0 0 1 164.4 23.92)"  >
<path style="stroke: none; stroke-width: 1; stroke-dasharray: none; stroke-linecap: butt; stroke-dashoffset: 0; stroke-linejoin: round; stroke-miterlimit: 1.41421; fill: rgb(255,255,255); fill-rule: nonzero; opacity: 1;" vector-effect="non-scaling-stroke"  transform=" translate(-414.4, -71.42)" d="M 415.335 77.337 L 417.137 77.337 L 417.137 68.796 C 417.137 66.402 415.95 65.512 414.17 65.512 C 413.004 65.512 412.135 65.872 411.66900000000004 66.147 L 411.66900000000004 67.80000000000001 C 412.283 67.31300000000002 412.96200000000005 67.016 413.74600000000004 67.016 C 414.89000000000004 67.016 415.33500000000004 67.673 415.33500000000004 69.072 L 415.33500000000004 77.337 Z" stroke-linecap="round" />
</g>
		<g transform="matrix(1 0 0 1 172.95 24.03)"  >
<path style="stroke: none; stroke-width: 1; stroke-dasharray: none; stroke-linecap: butt; stroke-dashoffset: 0; stroke-linejoin: round; stroke-miterlimit: 1.41421; fill: rgb(255,255,255); fill-rule: nonzero; opacity: 1;" vector-effect="non-scaling-stroke"  transform=" translate(-422.95, -71.53)" d="M 422.816 77.549 C 425.57099999999997 77.549 426.50399999999996 75.96000000000001 426.50399999999996 74.179 C 426.50399999999996 72.10300000000001 425.275 71.318 423.59999999999997 70.598 C 421.94699999999995 69.877 421.354 69.411 421.354 68.457 C 421.354 67.69399999999999 421.863 67.01599999999999 423.219 67.01599999999999 C 424.257 67.01599999999999 425.359 67.377 425.932 67.716 L 425.932 66.19 C 425.40200000000004 65.76599999999999 424.363 65.512 423.219 65.512 C 420.76099999999997 65.512 419.553 66.826 419.553 68.542 C 419.553 70.555 420.697 71.382 422.753 72.23 C 424.08799999999997 72.781 424.702 73.37400000000001 424.702 74.349 C 424.702 75.45100000000001 423.939 76.044 422.816 76.044 C 421.693 76.044 420.61199999999997 75.642 419.91299999999995 75.25999999999999 L 419.40399999999994 76.74399999999999 C 420.27299999999997 77.16799999999999 421.50199999999995 77.54899999999999 422.8159999999999 77.54899999999999 Z" stroke-linecap="round" />
</g>
		<g transform="matrix(1 0 0 1 182.07 24.03)"  >
<path style="stroke: none; stroke-width: 1; stroke-dasharray: none; stroke-linecap: butt; stroke-dashoffset: 0; stroke-linejoin: round; stroke-miterlimit: 1.41421; fill: rgb(255,255,255); fill-rule: nonzero; opacity: 1;" vector-effect="non-scaling-stroke"  transform=" translate(-432.07, -71.53)" d="M 431.272 77.549 C 431.844 77.549 432.37399999999997 77.46400000000001 432.819 77.25200000000001 L 432.586 75.85400000000001 C 432.332 75.98100000000001 432.014 76.04400000000001 431.654 76.04400000000001 C 430.636 76.04400000000001 430.001 75.49300000000001 430.001 74.17900000000002 C 430.001 72.80200000000002 430.679 72.08100000000002 432.69199999999995 71.91200000000002 L 434.1329999999999 71.78500000000003 L 434.1329999999999 77.33700000000002 L 435.9129999999999 77.33700000000002 L 435.9129999999999 69.47500000000002 C 435.9129999999999 66.78300000000002 434.5989999999999 65.51200000000003 432.2469999999999 65.51200000000003 C 430.8059999999999 65.51200000000003 429.6189999999999 65.95700000000002 428.9829999999999 66.38000000000002 L 428.9829999999999 68.07600000000002 C 429.8729999999999 67.39800000000002 430.9539999999999 67.01600000000002 432.0769999999999 67.01600000000002 C 433.5399999999999 67.01600000000002 434.13299999999987 67.73700000000002 434.13299999999987 69.58100000000002 L 434.13299999999987 70.25900000000001 L 432.4589999999999 70.38600000000001 C 429.4709999999999 70.59800000000001 428.2199999999999 71.891 428.2199999999999 74.22200000000001 C 428.2199999999999 76.36200000000001 429.30099999999993 77.549 431.27199999999993 77.549 Z" stroke-linecap="round" />
</g>
		<g transform="matrix(1 0 0 1 190.58 23.92)"  >
<path style="stroke: none; stroke-width: 1; stroke-dasharray: none; stroke-linecap: butt; stroke-dashoffset: 0; stroke-linejoin: round; stroke-miterlimit: 1.41421; fill: rgb(255,255,255); fill-rule: nonzero; opacity: 1;" vector-effect="non-scaling-stroke"  transform=" translate(-440.58, -71.42)" d="M 441.508 77.337 L 443.31 77.337 L 443.31 68.796 C 443.31 66.402 442.123 65.512 440.343 65.512 C 439.177 65.512 438.308 65.872 437.84200000000004 66.147 L 437.84200000000004 67.80000000000001 C 438.456 67.31300000000002 439.13500000000005 67.016 439.91900000000004 67.016 C 441.06300000000005 67.016 441.50800000000004 67.673 441.50800000000004 69.072 L 441.50800000000004 77.337 Z" stroke-linecap="round" />
</g>
		<g transform="matrix(1 0 0 1 199.99 24.03)"  >
<path style="stroke: none; stroke-width: 1; stroke-dasharray: none; stroke-linecap: butt; stroke-dashoffset: 0; stroke-linejoin: round; stroke-miterlimit: 1.41421; fill: rgb(255,255,255); fill-rule: nonzero; opacity: 1;" vector-effect="non-scaling-stroke"  transform=" translate(-449.99, -71.53)" d="M 449.434 77.549 C 449.858 77.549 450.40900000000005 77.48500000000001 450.74800000000005 77.274 L 450.5570000000001 75.875 C 450.32400000000007 75.981 450.0490000000001 76.044 449.73100000000005 76.044 C 448.1410000000001 76.044 447.67500000000007 74.116 447.67500000000007 71.636 C 447.67500000000007 67.822 448.71400000000006 67.01599999999999 450.17600000000004 67.01599999999999 C 451.72300000000007 67.01599999999999 452.2950000000001 67.99099999999999 452.2950000000001 69.74999999999999 L 452.2950000000001 77.33699999999999 L 454.0970000000001 77.33699999999999 L 454.0970000000001 69.58099999999999 C 454.0970000000001 67.07999999999998 452.9310000000001 65.51199999999999 450.1550000000001 65.51199999999999 C 447.6120000000001 65.51199999999999 445.8740000000001 66.84699999999998 445.8740000000001 71.61499999999998 C 445.8740000000001 74.87899999999998 446.7220000000001 77.54899999999998 449.4340000000001 77.54899999999998 Z" stroke-linecap="round" />
</g>
		<g transform="matrix(1 0 0 1 210.72 23.92)"  >
<path style="stroke: none; stroke-width: 1; stroke-dasharray: none; stroke-linecap: butt; stroke-dashoffset: 0; stroke-linejoin: round; stroke-miterlimit: 1.41421; fill: rgb(255,255,255); fill-rule: nonzero; opacity: 1;" vector-effect="non-scaling-stroke"  transform=" translate(-460.72, -71.42)" d="M 456.958 77.337 L 458.738 77.337 L 458.738 73.289 C 458.738 71.785 459.374 71.128 460.221 71.106 L 460.348 70.11 L 458.632 68.966 C 458.632 67.84299999999999 459.395 67.01599999999999 460.688 67.01599999999999 C 461.938 67.01599999999999 462.87 67.758 462.87 69.687 L 462.87 77.337 L 464.651 77.337 L 464.651 69.49600000000001 C 464.651 66.677 462.913 65.51200000000001 460.709 65.51200000000001 C 458.229 65.51200000000001 456.788 67.14300000000001 456.788 68.86000000000001 L 456.788 69.55900000000001 L 458.632 70.44900000000001 L 458.611 70.513 C 457.615 70.831 456.95799999999997 71.488 456.95799999999997 73.268 L 456.95799999999997 77.337 Z" stroke-linecap="round" />
</g>
		<g transform="matrix(1 0 0 1 220.47 24.03)"  >
<path style="stroke: none; stroke-width: 1; stroke-dasharray: none; stroke-linecap: butt; stroke-dashoffset: 0; stroke-linejoin: round; stroke-miterlimit: 1.41421; fill: rgb(255,255,255); fill-rule: nonzero; opacity: 1;" vector-effect="non-scaling-stroke"  transform=" translate(-470.47, -71.53)" d="M 470.33 77.549 C 473.085 77.549 474.018 75.96000000000001 474.018 74.179 C 474.018 72.10300000000001 472.789 71.318 471.114 70.598 C 469.46099999999996 69.877 468.868 69.411 468.868 68.457 C 468.868 67.69399999999999 469.377 67.01599999999999 470.733 67.01599999999999 C 471.771 67.01599999999999 472.873 67.377 473.446 67.716 L 473.446 66.19 C 472.91600000000005 65.76599999999999 471.877 65.512 470.733 65.512 C 468.275 65.512 467.067 66.826 467.067 68.542 C 467.067 70.555 468.211 71.382 470.267 72.23 C 471.602 72.781 472.216 73.37400000000001 472.216 74.349 C 472.216 75.45100000000001 471.45300000000003 76.044 470.33 76.044 C 469.207 76.044 468.126 75.642 467.42699999999996 75.25999999999999 L 466.91799999999995 76.74399999999999 C 467.787 77.16799999999999 469.01599999999996 77.54899999999999 470.3299999999999 77.54899999999999 Z" stroke-linecap="round" />
</g>
		<g transform="matrix(1 0 0 1 227.84 23.99)"  >
<path style="stroke: none; stroke-width: 1; stroke-dasharray: none; stroke-linecap: butt; stroke-dashoffset: 0; stroke-linejoin: round; stroke-miterlimit: 1.41421; fill: rgb(255,255,255); fill-rule: nonzero; opacity: 1;" vector-effect="non-scaling-stroke"  transform=" translate(-477.84, -71.49)" d="M 477.578 70.026 L 480.07899999999995 70.026 L 480.07899999999995 68.585 L 477.78999999999996 68.585 C 477.34499999999997 68.585 477.21799999999996 68.309 477.21799999999996 67.949 C 477.21799999999996 67.694 477.25999999999993 67.398 477.32399999999996 67.271 L 475.90399999999994 67.016 C 475.7339999999999 67.313 475.6069999999999 67.80000000000001 475.6069999999999 68.203 C 475.6069999999999 69.13600000000001 476.1369999999999 70.026 477.5779999999999 70.026 Z M 477.578 75.96 L 480.07899999999995 75.96 L 480.07899999999995 74.518 L 477.78999999999996 74.518 C 477.34499999999997 74.518 477.21799999999996 74.243 477.21799999999996 73.883 C 477.21799999999996 73.628 477.25999999999993 73.332 477.32399999999996 73.205 L 475.90399999999994 72.95 C 475.7339999999999 73.247 475.6069999999999 73.73400000000001 475.6069999999999 74.137 C 475.6069999999999 75.069 476.1369999999999 75.96 477.5779999999999 75.96 Z" stroke-linecap="round" />
</g>
		<g transform="matrix(1 0 0 1 236.21 24.14)"  >
<path style="stroke: none; stroke-width: 1; stroke-dasharray: none; stroke-linecap: butt; stroke-dashoffset: 0; stroke-linejoin: round; stroke-miterlimit: 1.41421; fill: rgb(255,255,255); fill-rule: nonzero; opacity: 1;" vector-effect="non-scaling-stroke"  transform=" translate(-486.21, -71.64)" d="M 486.225 77.549 C 488.937 77.549 490.06100000000004 76.00200000000001 490.06100000000004 73.183 L 490.06100000000004 65.724 L 488.28000000000003 65.724 L 488.28000000000003 73.183 C 488.28000000000003 75.09100000000001 487.62300000000005 76.04400000000001 486.225 76.04400000000001 C 484.805 76.04400000000001 484.148 75.09100000000001 484.148 73.183 L 484.148 65.724 L 482.36800000000005 65.724 L 482.36800000000005 73.183 C 482.36800000000005 76.00200000000001 483.49100000000004 77.549 486.2250000000001 77.549 Z" stroke-linecap="round" />
</g>
		<g transform="matrix(1 0 0 1 239.01 14.85)"  >
<path style="stroke: none; stroke-width: 1; stroke-dasharray: none; stroke-linecap: butt; stroke-dashoffset: 0; stroke-linejoin: round; stroke-miterlimit: 1.41421; fill: rgb(255,255,255); fill-rule: nonzero; opacity: 1;" vector-effect="non-scaling-stroke"  transform=" translate(-489.01, -62.35)" d="M 487.835 63.859 L 492.159 63.859 L 492.159 62.46 L 488.069 62.46 C 487.64500000000004 62.46 487.475 62.142 487.475 61.782000000000004 C 487.475 61.54900000000001 487.51800000000003 61.252 487.56 61.125 L 486.161 60.849 C 485.97 61.166999999999994 485.864 61.717999999999996 485.864 62.120999999999995 C 485.864 63.032 486.373 63.858999999999995 487.835 63.858999999999995 Z" stroke-linecap="round" />
</g>
		<g transform="matrix(1 0 0 1 245.84 23.98)"  >
<path style="stroke: none; stroke-width: 1; stroke-dasharray: none; stroke-linecap: butt; stroke-dashoffset: 0; stroke-linejoin: round; stroke-miterlimit: 1.41421; fill: rgb(255,255,255); fill-rule: nonzero; opacity: 1;" vector-effect="non-scaling-stroke"  transform=" translate(-495.84, -71.48)" d="M 494.511 77.337 L 495.48600000000005 77.337 C 497.01200000000006 77.337 497.92300000000006 76.828 498.58000000000004 76.00200000000001 C 499.38500000000005 74.98500000000001 500.00000000000006 73.22600000000001 500.00000000000006 71.022 C 500.00000000000006 69.305 499.64000000000004 67.77900000000001 498.85600000000005 66.82600000000001 C 498.24100000000004 66.04100000000001 497.33000000000004 65.61800000000001 496.20700000000005 65.61800000000001 C 495.8670000000001 65.61800000000001 495.422 65.66000000000001 494.9560000000001 65.82900000000001 L 495.3380000000001 67.271 C 495.5280000000001 67.186 495.7830000000001 67.122 496.0580000000001 67.122 C 497.3930000000001 67.122 498.2200000000001 68.585 498.2200000000001 70.958 C 498.2200000000001 72.378 497.92300000000006 73.925 497.3300000000001 74.879 C 496.9910000000001 75.409 496.5240000000001 75.769 496.0160000000001 75.769 L 495.84600000000006 75.769 L 493.47300000000007 65.724 L 491.67100000000005 65.724 L 494.511 77.337 Z" stroke-linecap="round" />
</g>
</g>
</g>
</svg>